<svg width="44" height="40" viewBox="0 0 44 40" fill="none" xmlns="http://www.w3.org/2000/svg">
<path d="M0.614834 17.5409L8.16099 17.4414L8.72328 17.5881C10.2472 18.4627 11.6818 19.4631 13.0219 20.5945C13.9888 21.4116 14.9137 22.302 15.7912 23.2657C18.4976 18.9237 21.3825 14.9378 24.4304 11.2714C27.7674 7.25416 31.3092 3.60875 35.0297 0.282834L35.7654 0H44L42.3394 1.83842C37.2368 7.48985 32.6072 13.3298 28.4242 19.3532C24.2413 25.3817 20.4997 31.604 17.1733 38.0097L16.1381 40L15.1869 37.973C13.4317 34.2176 11.3298 30.7712 8.82312 27.6915C6.31649 24.6118 3.39998 21.8777 0 19.5522L0.614834 17.5409Z" fill="black"/>
</svg>
