<svg width="45" height="45" viewBox="0 0 45 45" fill="none" xmlns="http://www.w3.org/2000/svg">
<circle cx="22.5" cy="22.5" r="22.5" fill="#81FEFA"/>
<path d="M1.61483 20.5409L9.16099 20.4414L9.72328 20.5881C11.2472 21.4627 12.6818 22.4631 14.0219 23.5945C14.9888 24.4116 15.9137 25.302 16.7912 26.2657C19.4976 21.9237 22.3825 17.9378 25.4304 14.2714C28.7674 10.2542 32.3092 6.60875 36.0297 3.28283L36.7654 3H45L43.3394 4.83842C38.2368 10.4899 33.6072 16.3298 29.4242 22.3532C25.2413 28.3817 21.4997 34.604 18.1733 41.0097L17.1381 43L16.1869 40.973C14.4317 37.2176 12.3298 33.7712 9.82312 30.6915C7.31649 27.6118 4.39998 24.8777 1 22.5522L1.61483 20.5409Z" fill="black"/>
</svg>
